<svg width="59" height="60" viewBox="0 0 59 60" fill="none" xmlns="http://www.w3.org/2000/svg">
<path d="M27.7762 2.22597L26.2852 5.11514C26.2321 5.21858 26.134 5.2913 26.022 5.31076L22.8757 5.86995C22.01 6.02358 21.2985 6.65549 21.0263 7.51066C20.7551 8.36584 20.9683 9.305 21.5797 9.95023L23.8043 12.2956C23.8844 12.3795 23.9214 12.4963 23.9054 12.612L23.4521 15.8463C23.327 16.7374 23.6943 17.6253 24.4058 18.1538C25.1163 18.6823 26.055 18.7652 26.8436 18.3689L29.7097 16.9279C29.8127 16.8767 29.9328 16.8767 30.0359 16.9279L32.902 18.3689C33.6906 18.7652 34.6292 18.6823 35.3398 18.1538C36.0513 17.6253 36.4185 16.7374 36.2935 15.8463L35.8401 12.612C35.8241 12.4963 35.8611 12.3795 35.9412 12.2956L38.1658 9.95023C38.7773 9.305 38.9904 8.36584 38.7192 7.51066C38.447 6.65549 37.7355 6.02358 36.8699 5.86995L33.7236 5.31076C33.6115 5.2913 33.5134 5.21858 33.4604 5.11514L31.9693 2.22597C31.558 1.43019 30.7514 0.933472 29.8728 0.933472C28.9941 0.933472 28.1875 1.43019 27.7762 2.22597Z" fill="#FFB43F"/>
<path d="M54.5498 11.7978L51.4986 12.7616C51.3895 12.7964 51.2704 12.7769 51.1773 12.7104L48.5664 10.8279C47.8479 10.3107 46.9082 10.2421 46.1246 10.6497C45.3421 11.0584 44.8437 11.8767 44.8307 12.7759L44.7837 16.044C44.7817 16.1608 44.7276 16.2704 44.6355 16.34L42.0807 18.3003C41.3772 18.839 41.0229 19.7331 41.161 20.621C41.2981 21.51 41.9046 22.2474 42.7362 22.5383L45.7584 23.5931C45.8664 23.631 45.9515 23.7181 45.9885 23.8287L47.0203 26.9217C47.3035 27.7728 48.025 28.3934 48.8927 28.5347C49.7603 28.6751 50.6339 28.3125 51.1603 27.5925L53.0757 24.9778C53.1438 24.8836 53.2508 24.8283 53.3659 24.8262L56.5582 24.7781C57.4369 24.7648 58.2365 24.2548 58.6358 23.4539C59.035 22.6519 58.968 21.6902 58.4616 20.9549L56.6233 18.2839C56.5572 18.1876 56.5382 18.0667 56.5723 17.9541L57.5139 14.8324C57.7731 13.9721 57.547 13.0371 56.9245 12.4011C56.3031 11.7651 55.3894 11.5326 54.5498 11.7978Z" fill="#FFB43F"/>
<path d="M2.23162 14.8324L3.17331 17.9541C3.20733 18.0667 3.18832 18.1876 3.12227 18.2839L1.28393 20.9549C0.777561 21.6902 0.710512 22.6519 1.1098 23.4539C1.50909 24.2548 2.30868 24.7648 3.18732 24.7781L6.37964 24.8262C6.49473 24.8283 6.60181 24.8836 6.66986 24.9778L8.58525 27.5925C9.11164 28.3125 9.98527 28.6751 10.8529 28.5347C11.7205 28.3934 12.4421 27.7728 12.7253 26.9217L13.757 23.8287C13.794 23.7181 13.8791 23.631 13.9872 23.5931L17.0094 22.5383C17.841 22.2474 18.4474 21.51 18.5845 20.621C18.7226 19.7331 18.3684 18.839 17.6649 18.3003L15.11 16.341C15.0179 16.2704 14.9639 16.1608 14.9619 16.044L14.9149 12.7759C14.9019 11.8767 14.4035 11.0584 13.6209 10.6497C12.8374 10.2421 11.8977 10.3107 11.1791 10.8279L8.56824 12.7093C8.47517 12.7769 8.35609 12.7964 8.24701 12.7616L5.19578 11.7978C4.35617 11.5326 3.4425 11.7651 2.82105 12.4011C2.1986 13.0371 1.97243 13.9721 2.23162 14.8324Z" fill="#FFB43F"/>
<path d="M29.8728 59.2699C40.1892 59.2699 48.5524 50.7109 48.5524 40.1528C48.5524 29.5948 40.1892 21.0358 29.8728 21.0358C19.5563 21.0358 11.1932 29.5948 11.1932 40.1528C11.1932 50.7109 19.5563 59.2699 29.8728 59.2699Z" fill="#FFC45C"/>
<path d="M37.064 41.8428L22.6745 41.8694C21.6878 41.8694 20.7601 42.3764 20.2077 43.2203C19.6553 44.0652 19.5502 45.1365 19.9285 46.0756C21.5157 50.0945 25.3725 52.9376 29.8728 52.9376C34.3701 52.9376 38.2259 50.0976 39.8411 46.0869C40.2233 45.1385 40.1173 44.058 39.5598 43.2059C39.0024 42.3538 38.0658 41.8428 37.064 41.8428Z" fill="#354E5B"/>
<path d="M19.9796 46.2016C20.0436 46.0582 20.1197 45.9189 20.2077 45.7848C20.7601 44.9409 21.6878 44.4339 22.6745 44.4339L37.064 44.4073C38.0658 44.4073 39.0024 44.9183 39.5598 45.7704C39.6499 45.9077 39.728 46.0521 39.795 46.1996C39.81 46.1627 39.826 46.1248 39.8411 46.0869C40.2233 45.1385 40.1173 44.058 39.5598 43.2059C39.0024 42.3538 38.0658 41.8428 37.064 41.8428L22.6745 41.8694C21.6878 41.8694 20.7601 42.3764 20.2077 43.2203C19.6553 44.0652 19.5502 45.1365 19.9285 46.0756C19.9455 46.1176 19.9615 46.1596 19.9796 46.2016Z" fill="#2A3F4A"/>
<path d="M21.0814 36.3082C21.1464 35.8822 21.4676 35.5882 21.8319 35.326C22.0391 35.1765 22.2872 35.0935 22.5444 35.0014C22.8977 34.8744 23.288 34.8201 23.6853 34.8447C24.0135 34.8242 24.3367 34.8559 24.64 34.942C24.8571 35.0034 25.0703 35.0567 25.2604 35.1581C25.7688 35.4284 26.2121 35.7767 26.2892 36.3082C26.2892 36.5929 26.5143 36.8244 26.7925 36.8244C27.0707 36.8244 27.2969 36.5929 27.2969 36.3082C27.433 35.3629 26.9597 34.4719 26.2021 33.7754C25.7448 33.3555 25.1503 33.0647 24.5079 32.8977C24.2417 32.8291 23.9645 32.8076 23.6853 32.7974C23.312 32.8127 22.9427 32.8547 22.5965 32.9674C22.0561 33.1425 21.5547 33.4016 21.1614 33.7642C20.4019 34.4647 19.9325 35.3609 20.0736 36.3082C20.0736 36.5929 20.2998 36.8244 20.578 36.8244C20.8552 36.8244 21.0814 36.5929 21.0814 36.3082Z" fill="#354E5B"/>
<path d="M33.4564 36.3082C33.5224 35.8822 33.8427 35.5882 34.2079 35.326C34.4141 35.1765 34.6633 35.0935 34.9195 35.0014C35.2737 34.8744 35.664 34.8201 36.0603 34.8447C36.3885 34.8242 36.7118 34.8559 37.015 34.942C37.2331 35.0034 37.4453 35.0567 37.6354 35.1581C38.1448 35.4284 38.5871 35.7767 38.6642 36.3082C38.6642 36.5929 38.8904 36.8244 39.1676 36.8244C39.4458 36.8244 39.6719 36.5929 39.6719 36.3082C39.808 35.3629 39.3357 34.4719 38.5771 33.7754C38.1198 33.3555 37.5254 33.0647 36.8829 32.8977C36.6177 32.8291 36.3395 32.8076 36.0603 32.7974C35.688 32.8127 35.3177 32.8547 34.9715 32.9674C34.4311 33.1425 33.9297 33.4016 33.5364 33.7642C32.7779 34.4647 32.3075 35.3609 32.4487 36.3082C32.4487 36.5929 32.6748 36.8244 32.953 36.8244C33.2312 36.8244 33.4564 36.5929 33.4564 36.3082Z" fill="#354E5B"/>
<path d="M23.6642 49.9367C23.4861 50.3914 23.6472 50.9107 24.0485 51.177C25.7267 52.2913 27.7262 52.9375 29.8728 52.9375C32.0183 52.9375 34.0178 52.2913 35.697 51.18C36.0993 50.9138 36.2604 50.3935 36.0823 49.9388C35.1927 47.6651 32.7619 45.9855 29.8728 45.9855C26.9847 45.9855 24.5549 47.6641 23.6642 49.9367Z" fill="#E40C5B"/>
</svg>
